static_grf.mot
version=1
nRows=15
nColumns 19
inDegrees=yes
endheader
time	1_ground_force_vx	1_ground_force_vy	1_ground_force_vz	1_ground_force_px	1_ground_force_py	1_ground_force_pz	1_ground_torque_x	1_ground_torque_y	1_ground_torque_z	2_ground_force_vx	2_ground_force_vy	2_ground_force_vz	2_ground_force_px	2_ground_force_py	2_ground_force_pz	2_ground_torque_x	2_ground_torque_y	2_ground_torque_z
            0.982500	           -2.247568	          285.971327	          -15.185151	           -0.244362	            0.006256	           -0.413575	           -0.009696	            1.233742	           -0.065512	           -0.064737	          266.589065	           18.032873	           -0.255411	            0.005504	           -0.681424	            0.000163	           -0.672887	           -0.045516
            0.983000	           -2.109778	          285.790725	          -15.094553	           -0.244484	            0.006255	           -0.413330	           -0.009007	            1.220051	           -0.064439	            0.031518	          265.853677	           17.795564	           -0.254973	            0.005501	           -0.680368	           -0.000083	           -0.703736	           -0.047106
            0.983500	           -2.063806	          286.331107	          -15.000636	           -0.244329	            0.006254	           -0.413083	           -0.008691	            1.205786	           -0.063170	            0.029545	          266.405932	           17.844463	           -0.255142	            0.005502	           -0.680826	           -0.000076	           -0.688299	           -0.046104
            0.984000	           -2.154791	          285.609044	          -14.774221	           -0.244167	            0.006256	           -0.413450	           -0.009432	            1.250155	           -0.064669	            0.083747	          264.380158	           17.931072	           -0.255375	            0.005498	           -0.679799	           -0.000232	           -0.730991	           -0.049578
            0.984500	           -2.017475	          286.150095	          -14.818099	           -0.244387	            0.006255	           -0.413221	           -0.008869	            1.257927	           -0.065141	           -0.437542	          266.035290	           18.031061	           -0.255051	            0.005503	           -0.680963	            0.000988	           -0.600482	           -0.040699
            0.985000	           -2.064441	          286.692622	          -15.228370	           -0.244502	            0.006255	           -0.413180	           -0.008920	            1.238687	           -0.065796	            0.125218	          265.854016	           17.795524	           -0.255339	            0.005502	           -0.681004	           -0.000310	           -0.657413	           -0.044005
            0.985500	           -2.109712	          285.430194	          -15.096099	           -0.244232	            0.006257	           -0.413795	           -0.009117	            1.233484	           -0.065238	            0.218959	          265.854019	           17.889341	           -0.255548	            0.005500	           -0.680652	           -0.000550	           -0.668385	           -0.044976
            0.986000	           -2.109470	          285.970371	          -14.956212	           -0.244341	            0.006256	           -0.413474	           -0.009242	            1.252911	           -0.065527	            0.217548	          266.222970	           17.702942	           -0.255237	            0.005502	           -0.680934	           -0.000538	           -0.658473	           -0.043786
            0.986500	           -2.018482	          285.430998	          -15.279750	           -0.244670	            0.006257	           -0.413689	           -0.008958	            1.266706	           -0.067810	            0.219624	          265.669817	           17.888683	           -0.255192	            0.005501	           -0.680618	           -0.000610	           -0.738012	           -0.049693
            0.987000	           -2.018305	          286.331706	          -15.138318	           -0.244237	            0.006255	           -0.413367	           -0.009133	            1.295684	           -0.068503	            0.079013	          265.669812	           17.747959	           -0.254917	            0.005502	           -0.680404	           -0.000211	           -0.708872	           -0.047356
            0.987500	           -2.109500	          284.889170	          -15.052562	           -0.244453	            0.006259	           -0.414088	           -0.009084	            1.226732	           -0.064816	           -0.017428	          266.406767	           17.562915	           -0.254998	            0.005502	           -0.680544	            0.000046	           -0.710373	           -0.046831
            0.988000	           -2.292890	          285.610000	          -15.003159	           -0.244650	            0.006257	           -0.413682	           -0.009866	            1.228895	           -0.064554	            0.077101	          266.221626	           17.937642	           -0.255156	            0.005502	           -0.680651	           -0.000199	           -0.688586	           -0.046396
            0.988500	           -2.155555	          285.430185	          -15.095985	           -0.244240	            0.006256	           -0.413532	           -0.009265	            1.226879	           -0.064888	            0.171403	          266.038325	           17.796161	           -0.254672	            0.005503	           -0.680617	           -0.000458	           -0.710485	           -0.047527
            0.989000	           -2.247226	          285.970737	          -15.047583	           -0.244361	            0.006256	           -0.413490	           -0.009830	            1.250891	           -0.065821	           -0.112293	          266.773371	           17.939693	           -0.254551	            0.005506	           -0.681247	            0.000277	           -0.658589	           -0.044288
            0.989500	           -2.109616	          286.150863	          -15.001295	           -0.244344	            0.006254	           -0.413117	           -0.008837	            1.198712	           -0.062842	           -0.153140	          265.115707	           17.980728	           -0.254831	            0.005501	           -0.680152	            0.000380	           -0.658140	           -0.044636
